<svg xmlns="http://www.w3.org/2000/svg" viewBox="0 0 362 160.25"><defs><style>.cls-1{font-size:52px;font-family:Archivo-Bold, Archivo;font-weight:700;}.cls-1,.cls-2,.cls-3{fill:#0f0d11;}.cls-2{font-size:40.35px;font-family:Michoto-SemiBold, Michoto;font-weight:600;}.cls-4{fill:#efe8f7;}</style></defs><g id="Layer_2" data-name="Layer 2"><g id="text"><text class="cls-1" transform="translate(181.03 84.48)">Hedera</text><text class="cls-2" transform="translate(183.61 124.21)">hacks.</text><circle class="cls-3" cx="80.12" cy="80.12" r="80.12"/><polygon class="cls-4" points="123.84 31.69 123.84 99.5 114.15 99.5 114.15 80.13 104.46 80.13 104.46 70.44 114.15 70.44 114.15 60.75 75.46 60.75 75.46 70.44 65.78 70.44 65.78 31.69 75.46 31.69 75.46 51.07 114.15 51.07 114.15 31.69 123.84 31.69"/><rect class="cls-4" x="84.74" y="80.12" width="0.1" height="0.01"/><rect class="cls-4" x="46.02" y="89.81" width="9.69" height="0.01"/><rect class="cls-4" x="84.74" y="80.12" width="0.1" height="0.01"/><rect class="cls-4" x="65.51" y="89.81" width="9.68" height="0.01"/><rect class="cls-4" x="55.76" y="89.81" width="9.69" height="0.01"/><rect class="cls-4" x="46.02" y="89.81" width="0.06" height="0.01"/><path class="cls-4" d="M84.74,70.44v9.68H46.08V60.75H36.4v67.81h9.68V109.19H84.74v19.37h9.69V70.44Zm0,29.06H46.08V89.82H84.74Z"/></g></g></svg>